<svg width="185" height="185" viewBox="0 0 185 185" fill="none" xmlns="http://www.w3.org/2000/svg">
<path d="M147.075 142.357C144.67 134.957 137.732 129.5 129.5 129.5H120.25V101.75C120.25 99.2967 119.275 96.944 117.541 95.2093C115.806 93.4746 113.453 92.5 111 92.5H55.5V74H74C76.4533 74 78.806 73.0254 80.5407 71.2907C82.2754 69.556 83.25 67.2033 83.25 64.75V46.25H101.75C106.657 46.25 111.362 44.3009 114.831 40.8315C118.301 37.3621 120.25 32.6565 120.25 27.75V23.9575C131.317 28.4194 141.139 35.4966 148.873 44.5835C156.608 53.6703 162.026 64.4961 164.662 76.1341C167.299 87.7721 167.077 99.8757 164.014 111.409C160.951 122.942 155.139 133.561 147.075 142.357ZM83.25 165.853C46.7125 161.32 18.5 130.24 18.5 92.5C18.5 86.765 19.24 81.215 20.4425 75.9425L64.75 120.25V129.5C64.75 134.407 66.6991 139.112 70.1685 142.581C73.638 146.051 78.3435 148 83.25 148M92.5 0C80.3527 0 68.3244 2.39258 57.1018 7.04114C45.8792 11.6897 35.682 18.5032 27.0926 27.0926C9.74551 44.4397 0 67.9675 0 92.5C0 117.033 9.74551 140.56 27.0926 157.907C35.682 166.497 45.8792 173.31 57.1018 177.959C68.3244 182.607 80.3527 185 92.5 185C117.033 185 140.56 175.254 157.907 157.907C175.254 140.56 185 117.033 185 92.5C185 80.3527 182.607 68.3244 177.959 57.1018C173.31 45.8792 166.497 35.682 157.907 27.0926C149.318 18.5032 139.121 11.6897 127.898 7.04114C116.676 2.39258 104.647 0 92.5 0Z" fill="black"/>
</svg>
