<svg width="54" height="59" viewBox="0 0 54 59" fill="none" xmlns="http://www.w3.org/2000/svg">
<path d="M41.1454 20.4007L49.6332 28.8885C51.0106 30.2475 52.1054 31.8655 52.8549 33.6494C53.6043 35.4332 53.9934 37.3477 53.9999 39.2826C54.0064 41.2175 53.6301 43.1345 52.8926 44.9233C52.1552 46.7122 51.0712 48.3375 49.703 49.7057C48.3348 51.0738 46.7095 52.1578 44.9207 52.8953C43.1318 53.6327 41.2148 54.0091 39.2799 54.0026C37.345 53.9961 35.4306 53.6069 33.6467 52.8575C31.8629 52.1081 30.2449 51.0132 28.8859 49.6359L26.0584 46.8084C25.6761 46.4395 25.371 45.9981 25.1611 45.5101C24.9512 45.022 24.8406 44.4971 24.8357 43.9658C24.8309 43.4345 24.9318 42.9076 25.1328 42.4158C25.3337 41.924 25.6306 41.4771 26.0061 41.1012C26.3816 40.7254 26.8282 40.4281 27.3199 40.2267C27.8115 40.0252 28.3383 39.9237 28.8696 39.9281C29.4009 39.9325 29.9259 40.0426 30.4142 40.2521C30.9024 40.4615 31.3441 40.7661 31.7134 41.1481L34.5462 43.9783C35.7988 45.2197 37.4922 45.9143 39.2558 45.9102C41.0194 45.9061 42.7095 45.2035 43.9563 43.9563C45.2032 42.7091 45.9052 41.0188 45.9088 39.2552C45.9125 37.4917 45.2173 35.7985 43.9756 34.5462L35.4878 26.0584C34.5704 25.1406 33.4051 24.5104 32.1349 24.2451C30.8646 23.9797 29.5445 24.0908 28.3364 24.5646C27.906 24.7353 27.5024 24.9096 27.1254 25.0874L25.8877 25.6663C24.2339 26.4132 22.9615 26.7333 21.3424 25.1168C19.0163 22.7908 19.6192 20.6435 22.4547 18.6883C25.2793 16.7446 28.6954 15.8517 32.1097 16.1646C35.5241 16.4774 38.7211 17.9762 41.1454 20.4007ZM25.1141 4.36942L27.9416 7.19691C28.6708 7.95119 29.0746 8.96171 29.066 10.0108C29.0574 11.0599 28.637 12.0637 27.8955 12.8059C27.154 13.5481 26.1507 13.9693 25.1016 13.9789C24.0525 13.9885 23.0416 13.5857 22.2866 12.8572L19.4565 10.0297C18.8415 9.39264 18.1058 8.88441 17.2923 8.53469C16.4788 8.18496 15.6038 8.00075 14.7184 7.99281C13.8329 7.98487 12.9547 8.15335 12.1351 8.48842C11.3155 8.82349 10.5708 9.31844 9.94444 9.9444C9.31814 10.5704 8.82276 11.3148 8.48723 12.1342C8.15169 12.9537 7.98271 13.8317 7.99016 14.7172C7.9976 15.6027 8.18131 16.4778 8.53057 17.2915C8.87984 18.1051 9.38766 18.8411 10.0244 19.4565L18.5122 27.9443C19.4296 28.8621 20.5949 29.4923 21.8651 29.7576C23.1354 30.0229 24.4555 29.9119 25.6636 29.438C26.094 29.2673 26.4976 29.0931 26.8746 28.9152L28.1123 28.3364C29.7661 27.5895 31.0412 27.2694 32.6576 28.8859C34.9837 31.2119 34.3808 33.3592 31.5453 35.3144C28.7207 37.258 25.3046 38.1509 21.8903 37.8381C18.4759 37.5253 15.2789 36.0264 12.8546 33.6019L4.36676 25.1141C2.98945 23.7551 1.89456 22.1372 1.14514 20.3533C0.39572 18.5694 0.00656442 16.655 8.23354e-05 14.7201C-0.00639975 12.7852 0.36992 10.8682 1.10737 9.07932C1.84483 7.29048 2.92885 5.66519 4.29702 4.29702C5.66519 2.92885 7.29048 1.84483 9.07932 1.10737C10.8682 0.36992 12.7852 -0.00639975 14.7201 8.23355e-05C16.655 0.00656442 18.5694 0.39572 20.3533 1.14514C22.1371 1.89456 23.7551 2.99212 25.1141 4.36942Z" fill="black" fill-opacity="0.3"/>
</svg>
