<svg width="48" height="124" viewBox="0 0 48 124" fill="none" xmlns="http://www.w3.org/2000/svg">
<path d="M0 8C0 3.58172 3.58172 0 8 0H48V123.692H8C3.58172 123.692 0 120.111 0 115.692V8Z" fill="#FAFAFA"/>
<path d="M20.4456 60.9231L13.2918 50.9077C12.861 50.2923 12.8075 49.6542 13.1312 48.9932C13.4549 48.3323 14.0007 48.0012 14.7687 48C15.0764 48 15.3687 48.0695 15.6456 48.2086C15.9225 48.3477 16.1379 48.5397 16.2918 48.7846L24.9687 60.9231L16.2918 73.0615C16.1379 73.3077 15.9225 73.5003 15.6456 73.6394C15.3687 73.7785 15.0764 73.8474 14.7687 73.8462C14.0302 73.8462 13.4918 73.5157 13.1533 72.8548C12.8149 72.1938 12.861 71.5551 13.2918 70.9385L20.4456 60.9231ZM31.4302 60.9231L24.2764 50.9077C23.8456 50.2923 23.7915 49.6542 24.1139 48.9932C24.4364 48.3323 24.9835 48.0012 25.7552 48C26.0629 48 26.3552 48.0695 26.6321 48.2086C26.909 48.3477 27.1244 48.5397 27.2782 48.7846L35.9533 60.9231L27.2764 73.0615C27.1225 73.3077 26.9072 73.5003 26.6302 73.6394C26.3533 73.7785 26.061 73.8474 25.7533 73.8462C25.0149 73.8462 24.4764 73.5157 24.1379 72.8548C23.7995 72.1938 23.8456 71.5551 24.2764 70.9385L31.4302 60.9231Z" fill="#E2DFD2"/>
</svg>
