<svg width="48" height="124" viewBox="0 0 48 124" fill="none" xmlns="http://www.w3.org/2000/svg">
<path d="M0 8C0 3.58172 3.58172 0 8 0H48V123.692H8C3.58172 123.692 0 120.111 0 115.692V8Z" fill="#FAFAFA"/>
<path d="M28.4303 60.9231L35.5842 70.9385C36.015 71.5539 36.0685 72.192 35.7448 72.853C35.4211 73.5139 34.8753 73.845 34.1073 73.8462C33.7996 73.8462 33.5073 73.7767 33.2303 73.6376C32.9534 73.4985 32.738 73.3065 32.5842 73.0616L23.9073 60.9231L32.5842 48.7847C32.738 48.5385 32.9534 48.3459 33.2303 48.2068C33.5073 48.0677 33.7996 47.9988 34.1073 48C34.8457 48 35.3842 48.3305 35.7227 48.9914C36.0611 49.6523 36.015 50.2911 35.5842 50.9077L28.4303 60.9231ZM17.4457 60.9231L24.5996 70.9385C25.0303 71.5539 25.0845 72.192 24.762 72.853C24.4396 73.5139 23.8925 73.845 23.1208 73.8462C22.8131 73.8462 22.5208 73.7767 22.2439 73.6376C21.967 73.4985 21.7516 73.3065 21.5977 73.0616L12.9227 60.9231L21.5996 48.7847C21.7534 48.5385 21.9688 48.3459 22.2457 48.2068C22.5227 48.0677 22.815 47.9988 23.1227 48C23.8611 48 24.3996 48.3305 24.738 48.9914C25.0765 49.6523 25.0303 50.2911 24.5996 50.9077L17.4457 60.9231Z" fill="#E2DFD2"/>
</svg>
